<?xml version="1.0" encoding="UTF-8"?>
<svg id="Layer_2" data-name="Layer 2" xmlns="http://www.w3.org/2000/svg" viewBox="0 0 916.045 457.993">
  <defs>
    <style>
      .cls-1 {
        font-family: Georgia, Georgia;
        font-size: 237.642px;
      }

      .cls-2 {
        stroke: #000;
        stroke-miterlimit: 1.688;
        stroke-width: .002px;
      }
    </style>
  </defs>
  <g id="Layer_1-2" data-name="Layer 1">
    <g>
      <g id="SVGRepo_iconCarrier" data-name="SVGRepo iconCarrier">
        <path class="cls-2" d="m800.007,79.704c-1.147-3.41-6.601-2.031-14.003-6.253-10.996-6.271-13.643-17.034-18.198-26.689-8.737-18.519-28.734-26.052-36.108-28.265l.342-9.59c.125-3.522-2.685-6.751-7.11-8.171-4.428-1.419-9.592-.748-13.074,1.696l-28.137,19.772c-16.639,5.306-58.099,17.157-78.645,17.157-.226,0-.468.006-.694.015-.389.015-39.88,1.485-124.38-9.148-76.457-9.621-119.034,3.78-131.845,8.894-12.336-.599-46.88-.048-81.173,20.774-10.647,6.465-21.487,12.727-41.862,26.859-63.105,43.769-68.075,54.168-84.831,56.523-17.921,2.519-45.893-4.646-85.604-56.354,3.991,50.081,25.676,72.212,32.507,78.481,45.431,41.693,118.948,10.533,145.863-.875,36.19-15.339,61.4-37.364,75.709-51.739,11.26,31.822-15.021,48.166-16.179,48.863-2.826,1.648-4.473,4.142-4.473,6.779,0,20.304,12.801,47.936,13.346,49.101,1.645,3.519,6.181,5.884,11.28,5.884h12.711c6.58,0,11.916-3.887,11.916-8.682s-5.335-8.682-11.916-8.682h-3.954c-2.555-6.274-6.386-16.648-8.327-26.578,17.811-2.11,35.704-10.104,43.283-13.836.374-.184.724-.364,1.089-.546.405.644.895,1.266,1.521,1.834l58.785,53.248c2.263,2.049,5.676,3.24,9.284,3.24h12.711c6.58,0,11.916-3.887,11.916-8.682s-5.335-8.682-11.916-8.682h-7.004l-38.366-34.753c2.848-3.486,11.712-9.913,18.423-14.778,9.271-6.719,20.292-14.713,29.194-23.655,18.626,6.496,45.429,11.202,67.925,11.771l25.916,52.152h-32.539c-6.58,0-11.916,3.887-11.916,8.682s5.335,8.682,11.916,8.682h35.072c14.882,0,27.688-8.094,29.795-18.827l7.396-37.722,30.971,60.176c1.744,3.388,6.189,5.634,11.158,5.634h12.711c6.58,0,11.916-3.887,11.916-8.682s-5.335-8.682-11.916-8.682h-4.454l-32.882-63.888c19.371-6.542,50.824-18.652,93.15-39.773l45.03-8.202c5.101,3.364,21.451,13.18,40.293,8.649,15.822-3.805,30.436-17.014,28.378-23.133Zm-474.682,78.923c9.497-12.979,16.463-33.449,1.695-61.066-.18-.337-.394-.656-.622-.966,1.335-1.201,2.646-2.37,3.912-3.461,6.505,15.608,19.916,32.814,33.509,44.446-3.952,4.952-21.364,15.317-38.494,21.047Zm442.888-73.614c-6.911-1.234-20.528-4.733-31.579-7.979-2.332-.686-4.905-.816-7.349-.371l-50.841,9.261c-1.382.251-2.691.681-3.866,1.271-71.056,35.628-110.836,45.086-111.204,45.171-4.379,1.002-7.58,3.745-8.23,7.056l-6.333,32.295-19.768-39.778,10.422-15.187c2.942-4.289.557-9.504-5.329-11.648-5.886-2.145-13.044-.406-15.986,3.883l-12.416,18.092c-17.446-.981-37.692-4.65-51.778-9.336,6.441-11.517,7.169-24.095-3.988-37.225-3.464-4.076-10.806-5.337-16.404-2.812-5.596,2.524-7.323,7.875-3.859,11.952,14.702,17.305-5.58,34.23-33.622,54.558-1.022.741-2.016,1.463-2.994,2.175l1.624-2.189c2.793-3.764,1.405-8.452-3.273-11.041-17.298-9.582-41.367-40.258-41.367-57.336,0-3.114-2.29-5.991-6-7.536-3.711-1.546-8.274-1.526-11.958.053-10.484,4.494-20.482,13.759-33.142,25.488-22.666,20.999-47.658,40.426-78.554,55.974-24.611,12.385-56.748,28.558-92.083,17.159-20.008-6.454-33.825-19.421-41.631-28.174,28.104,16.551,49.508,17.242,63.394,15.123,10.886-1.661,20.8-5.605,90.951-54.247,29.07-20.157,32.482-21.149,41.182-26.432,33.114-20.105,65.389-16.77,66.674-16.627,3.076.373,6.234-.147,8.793-1.452.358-.182,36.642-18.087,118.241-7.817,84.287,10.608,124.914,9.552,129.466,9.387,30.329-.126,83.9-17.313,89.93-19.279,1.259-.411,2.411-.977,3.404-1.675l8.719-6.126-.303,8.525c-.17,4.793,5.024,8.781,11.603,8.904,6.566.092,12.05-3.661,12.221-8.454l.02-.582c4.595,4.118,9.414,8.881,14.267,14.369,10.047,11.365,17.482,22.727,22.95,32.605Z"/>
      </g>
      <text class="cls-1" transform="translate(0 385.934) scale(.951 1)"><tspan x="0" y="0">REVIEW</tspan></text>
    </g>
  </g>
</svg>